<?xml version="1.0" encoding="UTF-8"?>
<svg xmlns="http://www.w3.org/2000/svg" xmlns:xlink="http://www.w3.org/1999/xlink" width="400px" height="400px" viewBox="0 0 400 400" version="1.1">
<g id="surface1">
<path style="fill-rule:nonzero;fill:rgb(63.921571%,36.470589%,72.549021%);fill-opacity:1;stroke-width:0.2;stroke-linecap:butt;stroke-linejoin:miter;stroke:rgb(63.921571%,36.470589%,72.549021%);stroke-opacity:1;stroke-miterlimit:4;" d="M 23.868984 7.23 C 23.879062 6.069375 23.828906 4.911094 23.718984 3.754922 C 23.628984 2.827031 23.718984 1.418906 23.080078 0.919922 C 22.384219 0.454453 21.578906 0.179062 20.744062 0.120937 C 17.304844 -0.0658594 13.857422 -0.0358594 10.421953 0.210938 C 9.893906 0.299766 9.404297 0.543281 9.015 0.911016 C 8.254922 1.837969 8.216016 7.148906 8.196094 8.347031 C 8.205703 8.527266 8.355 8.668594 8.535469 8.668594 C 8.716172 8.668594 8.865234 8.527266 8.875078 8.347031 C 8.875078 7.488984 9.135 2.107969 9.693047 1.469062 C 9.938906 1.290937 10.222969 1.172109 10.522031 1.118906 C 12.018984 0.96 19.506094 1.118906 20.595 1.229062 C 20.991094 1.273594 21.379922 1.35375 21.761953 1.469062 C 22.661016 1.778906 22.412109 1.848984 22.631016 3.844922 C 22.893984 5.696016 22.957031 7.570078 22.821094 9.435 C 22.799766 10.050234 22.719375 10.662187 22.581094 11.261953 C 22.380937 11.122031 23.140078 11.672109 17.729062 12.169922 C 17.563359 12.169922 17.429063 12.304219 17.429063 12.469922 C 17.429063 12.635625 17.563359 12.769922 17.729062 12.769922 L 18.509062 12.709922 C 18.449063 13.330078 18.623906 13.947891 18.997031 14.447109 C 18.474141 14.481562 17.957578 14.582344 17.46 14.747109 C 17.320078 14.775469 17.219766 14.898281 17.219766 15.041016 C 17.219766 15.18375 17.320078 15.306563 17.46 15.334922 C 18.486562 15.699844 19.607344 15.699844 20.633906 15.334922 C 20.795625 15.305625 20.913047 15.164766 20.913047 15.000469 C 20.913047 14.836172 20.795625 14.695547 20.633906 14.666016 L 19.886016 14.556094 C 19.925859 13.907109 19.754062 13.262812 19.395937 12.72 C 20.136094 12.649922 22.881094 12.409922 23.290078 11.790938 C 23.699063 11.171953 23.858906 7.977891 23.868984 7.229062 " transform="matrix(16.666667,0,0,16.666667,0,0)"/>
<path style="fill-rule:nonzero;fill:rgb(63.921571%,36.470589%,72.549021%);fill-opacity:1;stroke-width:0.2;stroke-linecap:butt;stroke-linejoin:miter;stroke:rgb(63.921571%,36.470589%,72.549021%);stroke-opacity:1;stroke-miterlimit:4;" d="M 16.391953 7.289062 C 16.618594 7.323047 16.834922 7.389609 17.040937 7.488984 C 17.607422 7.806328 18.058125 8.295703 18.327891 8.886094 C 18.327891 9.096094 19.087031 9.156094 19.087031 8.786016 C 18.826641 7.715391 18.091641 6.822422 17.091094 6.360937 C 19.087031 5.062969 18.198984 1.709062 15.783047 1.867969 C 14.656406 1.796484 13.613437 2.463984 13.206797 3.517266 C 12.800156 4.570547 13.123594 5.765859 14.006016 6.469922 C 14.136094 6.559922 14.115937 6.469922 13.766016 6.72 C 12.995625 7.173047 12.446719 7.924453 12.248906 8.796094 C 12.248906 9.255937 12.578906 9.276094 12.948047 9.015937 C 13.500937 7.658437 14.973516 6.920156 16.391953 7.289062 M 14.006016 5.212969 C 13.706016 4.054922 14.306016 3.075937 15.792891 2.996016 C 16.167656 2.979375 16.531875 3.121875 16.796016 3.387891 C 17.060156 3.654141 17.199609 4.019531 17.179922 4.394062 C 17.299922 6.390937 14.445 6.820078 14.006016 5.212969 M 20.864062 9.405 C 18.867891 9.214922 11.64 9.405 11.43 9.405 C 11.287734 9.43125 11.184609 9.555234 11.184609 9.700078 C 11.184609 9.844687 11.287734 9.968672 11.43 9.994922 C 14.569922 10.222969 17.719922 10.267031 20.864062 10.125 C 21.502969 10.125 21.862031 10.253906 21.862031 9.895078 C 22.052109 9.394922 21.442969 9.435 20.864062 9.405 M 6.727969 10.244063 C 0.06 10.792969 1.458047 18.758906 5.73 18.340078 C 5.862656 18.361875 5.995547 18.303281 6.068906 18.190781 C 6.1425 18.078047 6.1425 17.932734 6.068906 17.820234 C 5.995547 17.707734 5.862656 17.649141 5.73 17.670938 C 2.486016 17.831016 1.567031 11.681016 6.858047 11.370938 C 10.241953 11.072109 11.329922 16.812891 6.858047 17.831016 C 6.739453 17.853984 6.646406 17.945625 6.621562 18.06375 C 6.596484 18.181641 6.644766 18.303281 6.743906 18.371953 C 12.517969 17.511094 11.470078 9.974063 6.727969 10.244063 " transform="matrix(16.666667,0,0,16.666667,0,0)"/>
<path style="fill-rule:nonzero;fill:rgb(63.921571%,36.470589%,72.549021%);fill-opacity:1;stroke-width:0.2;stroke-linecap:butt;stroke-linejoin:miter;stroke:rgb(63.921571%,36.470589%,72.549021%);stroke-opacity:1;stroke-miterlimit:4;" d="M 8.016094 15.135 C 8.016094 14.925 7.815937 14.246953 7.447031 14.796094 C 7.168359 15.075938 6.872344 15.335625 6.558984 15.574922 C 6.162891 15.345 5.753672 15.141562 5.331094 14.965078 C 5.231016 14.965078 5.100937 15.025078 5.091094 15.175078 C 5.137734 15.720234 5.502187 16.186172 6.019922 16.362891 C 6.247969 16.439062 6.490078 16.459922 6.728906 16.422891 C 7.447031 16.272891 8.016094 15.225 8.016094 15.135 M 3.854062 18.400078 C 2.072578 19.069922 0.755625 20.601562 0.36 22.462969 C 0.289922 22.762969 0.220078 23.132109 0.15 23.550937 C 0.118828 23.631797 0.123984 23.722031 0.164062 23.798672 C 0.204375 23.875312 0.275859 23.930859 0.36 23.951016 C 0.719062 24.049922 0.708984 23.681016 1.147969 22.772109 C 1.453359 22.206563 1.785937 21.657656 2.145938 21.124922 C 2.596406 20.27625 3.265078 19.563047 4.083047 19.058906 C 4.254844 18.988359 4.341328 18.795703 4.280156 18.620156 C 4.218984 18.444844 4.031484 18.347578 3.852891 18.398906 M 15.432891 12.430078 C 14.917031 12.175547 14.311875 12.175547 13.796016 12.430078 C 12.598359 13.548984 11.458828 14.728594 10.382109 15.963984 C 10.257656 16.068984 10.241953 16.254844 10.346953 16.379062 C 10.451953 16.503281 10.637812 16.518984 10.762031 16.413984 C 11.888672 15.332578 13.069687 14.313984 14.305078 13.357969 C 14.434922 13.287891 15.442969 13.147969 15.104062 14.267109 C 14.872969 14.930156 14.557734 15.561094 14.166094 16.143984 C 12.498984 18.828984 11.88 19.019063 11.860078 20.057109 C 11.860078 20.726016 12.198984 21.573984 12.258984 23.661094 C 12.252187 23.786719 12.315234 23.905781 12.423281 23.970703 C 12.531094 24.035625 12.665859 24.035625 12.773906 23.970703 C 12.881719 23.905781 12.944766 23.786719 12.937969 23.661094 C 12.987891 21.753984 12.717891 20.556094 12.757969 20.096953 C 12.807891 19.447031 13.676016 18.959062 15.113906 16.752891 C 15.572109 16.082109 15.931875 15.348984 16.181953 14.576016 C 16.372031 13.837969 16.172109 12.66 15.432891 12.430078 " transform="matrix(16.666667,0,0,16.666667,0,0)"/>
</g>
</svg>
